<svg width="16" height="16" viewBox="0 0 16 16" fill="none" xmlns="http://www.w3.org/2000/svg">
<g clip-path="url(#clip0_472_21)">
<path d="M12.25 0H3.75C1.67893 0 0 1.67893 0 3.75V12.25C0 14.3211 1.67893 16 3.75 16H12.25C14.3211 16 16 14.3211 16 12.25V3.75C16 1.67893 14.3211 0 12.25 0Z" fill="#242938"/>
<mask id="mask0_472_21" style="mask-type:luminance" maskUnits="userSpaceOnUse" x="3" y="1" width="10" height="14">
<path d="M3.8125 1.75H12.1475V14.25H3.8125V1.75Z" fill="white"/>
</mask>
<g mask="url(#mask0_472_21)">
<path d="M5.89673 14.2502C7.04673 14.2502 7.98004 13.3169 7.98004 12.1669V10.0835H5.89673C4.74673 10.0835 3.81335 11.0169 3.81335 12.1669C3.81335 13.3169 4.74673 14.2502 5.89673 14.2502Z" fill="#0ACF83"/>
<path d="M3.81335 7.99982C3.81335 6.84982 4.74673 5.9165 5.89673 5.9165H7.98004V10.0831H5.89673C4.74673 10.0831 3.81335 9.14982 3.81335 7.99982Z" fill="#A259FF"/>
<path d="M3.81335 3.83331C3.81335 2.68331 4.74673 1.75 5.89673 1.75H7.98004V5.91669H5.89673C4.74673 5.91669 3.81335 4.98331 3.81335 3.83331Z" fill="#F24E1E"/>
<path d="M7.9801 1.75H10.0634C11.2134 1.75 12.1468 2.68331 12.1468 3.83331C12.1468 4.98331 11.2134 5.91669 10.0634 5.91669H7.9801V1.75Z" fill="#FF7262"/>
<path d="M12.1468 7.99982C12.1468 9.14982 11.2134 10.0831 10.0634 10.0831C8.91342 10.0831 7.9801 9.14982 7.9801 7.99982C7.9801 6.84982 8.91342 5.9165 10.0634 5.9165C11.2134 5.9165 12.1468 6.84982 12.1468 7.99982Z" fill="#1ABCFE"/>
</g>
</g>
<defs>
<clipPath id="clip0_472_21">
<rect width="16" height="16" fill="white"/>
</clipPath>
</defs>
</svg>
